<?xml version="1.0" encoding="UTF-8" standalone="no"?>
<svg
   height="16px"
   viewBox="0 0 16 16"
   width="16px"
   version="1.1"
   id="svg1"
   sodipodi:docname="status-error-symbolic.svg"
   inkscape:version="1.4.2 (ebf0e940d0, 2025-05-08)"
   xmlns:inkscape="http://www.inkscape.org/namespaces/inkscape"
   xmlns:sodipodi="http://sodipodi.sourceforge.net/DTD/sodipodi-0.dtd"
   xmlns="http://www.w3.org/2000/svg"
   xmlns:svg="http://www.w3.org/2000/svg">
  <defs
     id="defs1" />
  <sodipodi:namedview
     id="namedview1"
     pagecolor="#ffffff"
     bordercolor="#000000"
     borderopacity="0.25"
     inkscape:showpageshadow="2"
     inkscape:pageopacity="0.0"
     inkscape:pagecheckerboard="0"
     inkscape:deskcolor="#d1d1d1"
     inkscape:zoom="35.9375"
     inkscape:cx="8"
     inkscape:cy="8"
     inkscape:window-width="1440"
     inkscape:window-height="831"
     inkscape:window-x="0"
     inkscape:window-y="0"
     inkscape:window-maximized="1"
     inkscape:current-layer="svg1" />
  <path
     d="m 4.4437495,3.225 c -0.3237302,0 -0.633178,0.1285421 -0.8616937,0.3570543 -0.4760744,0.4760787 -0.4760744,1.2473132 0,1.7233918 L 6.3766114,8.1000009 3.5820558,10.894555 c -0.4760744,0.476079 -0.4760744,1.247314 0,1.723393 0.4760743,0.476069 1.247315,0.476069 1.7233879,0 L 8.0999996,9.8233927 10.894555,12.617948 c 0.476075,0.476069 1.247315,0.476069 1.723388,0 0.476076,-0.476079 0.476076,-1.247314 0,-1.723393 L 9.823389,8.1000009 12.617943,5.3054461 c 0.476076,-0.4760786 0.476076,-1.2473131 0,-1.7233918 C 12.389428,3.3535421 12.079979,3.225 11.756249,3.225 c -0.323731,0 -0.633177,0.1285421 -0.861694,0.3570543 L 8.0999996,6.3766091 5.3054437,3.5820543 C 5.0769281,3.3535421 4.7674799,3.225 4.4437495,3.225 Z m 0,0"
     fill="#222222"
     id="path1"
     style="stroke-width:1.21874" />
</svg>
