<?xml version="1.0" encoding="UTF-8" standalone="no"?>
<svg
   height="16px"
   viewBox="0 0 16 16"
   width="16px"
   version="1.1"
   id="svg2"
   sodipodi:docname="status-warning-symbolic.svg"
   inkscape:version="1.4.2 (ebf0e940d0, 2025-05-08)"
   xmlns:inkscape="http://www.inkscape.org/namespaces/inkscape"
   xmlns:sodipodi="http://sodipodi.sourceforge.net/DTD/sodipodi-0.dtd"
   xmlns="http://www.w3.org/2000/svg"
   xmlns:svg="http://www.w3.org/2000/svg">
  <defs
     id="defs2" />
  <sodipodi:namedview
     id="namedview2"
     pagecolor="#ffffff"
     bordercolor="#000000"
     borderopacity="0.25"
     inkscape:showpageshadow="2"
     inkscape:pageopacity="0.0"
     inkscape:pagecheckerboard="0"
     inkscape:deskcolor="#d1d1d1"
     inkscape:zoom="35.9375"
     inkscape:cx="8"
     inkscape:cy="8"
     inkscape:window-width="1440"
     inkscape:window-height="831"
     inkscape:window-x="0"
     inkscape:window-y="0"
     inkscape:window-maximized="1"
     inkscape:current-layer="svg2" />
  <g
     fill="#222222"
     id="g2"
     transform="matrix(0.734375,0,0,0.734375,2.225,2.225)">
    <path
       d="M 8,0 C 3.589844,0 0,3.589844 0,8 c 0,4.410156 3.589844,8 8,8 4.410156,0 8,-3.589844 8,-8 C 16,3.589844 12.410156,0 8,0 Z m 0,2 c 3.332031,0 6,2.667969 6,6 0,3.332031 -2.667969,6 -6,6 C 4.667969,14 2,11.332031 2,8 2,4.667969 4.667969,2 8,2 Z m 0,7.875 c -0.621094,0 -1.125,0.503906 -1.125,1.125 0,0.621094 0.503906,1.125 1.125,1.125 0.621094,0 1.125,-0.503906 1.125,-1.125 C 9.125,10.378906 8.621094,9.875 8,9.875 Z m 0,0"
       id="path1" />
    <path
       d="M 7,4 H 9 V 9 H 7 Z m 0,0"
       id="path2" />
  </g>
</svg>
