<?xml version="1.0" encoding="UTF-8"?>
<svg height="16px" viewBox="0 0 16 16" width="16px" xmlns="http://www.w3.org/2000/svg" xmlns:xlink="http://www.w3.org/1999/xlink">
    <filter id="a" height="100%" width="100%" x="0%" y="0%">
        <feColorMatrix color-interpolation-filters="sRGB" values="0 0 0 0 1 0 0 0 0 1 0 0 0 0 1 0 0 0 1 0"/>
    </filter>
    <mask id="b">
        <g filter="url(#a)">
            <rect fill-opacity="0.75" height="19.2" width="19.2" x="-1.6" y="-1.6"/>
        </g>
    </mask>
    <clipPath id="c">
        <rect height="152" width="192"/>
    </clipPath>
    <path d="m 7.761719 0.464844 l -6.464844 2.980468 v 3.003907 c 0 3.722656 2.464844 7.15625 6.464844 9.019531 c 4 -1.863281 6.464843 -5.296875 6.464843 -9.019531 v -3.003907 z m 0 0.753906 l 5.699219 2.667969 v 2.691406 c 0 3.332031 -2.171876 6.40625 -5.699219 8.074219 c -3.527344 -1.667969 -5.699219 -4.742188 -5.699219 -8.074219 v -2.691406 z m 0 0" stroke="#000000" stroke-width="0.8"/>
    <g mask="url(#b)">
        <g clip-path="url(#c)" transform="matrix(1 0 0 1 -168 -16)">
            <path d="m 72 24.492188 l -45.402344 21.265624 v 21.4375 c 0 26.53125 17.308594 51.042969 45.402344 64.308594 z m 0 0" fill="#ffffff" fill-opacity="0.601637"/>
        </g>
    </g>
    <path d="m 10.761719 4.5625 c -0.214844 0.019531 -0.410157 0.113281 -0.550781 0.269531 l -3.472657 3.875 l -0.992187 -0.921875 c -0.316406 -0.292968 -0.828125 -0.292968 -1.144532 0 c -0.316406 0.292969 -0.316406 0.769532 0 1.0625 l 1.617188 1.503906 c 0.160156 0.152344 0.378906 0.230469 0.605469 0.21875 c 0.226562 -0.007812 0.441406 -0.105468 0.585937 -0.269531 l 4.042969 -4.507812 c 0.285156 -0.320313 0.238281 -0.792969 -0.101563 -1.058594 c -0.164062 -0.128906 -0.378906 -0.1875 -0.589843 -0.171875 z m 0 0"/>
</svg>
