<?xml version="1.0" encoding="UTF-8"?>
<svg height="128px" viewBox="0 0 128 128" width="128px" xmlns="http://www.w3.org/2000/svg">
    <path d="m 64 2.496094 l -51.503906 23.746094 v 23.941406 c 0 29.625 19.632812 57 51.503906 71.816406 c 31.871094 -14.8125 51.503906 -42.191406 51.503906 -71.816406 v -23.941406 z m 0 0" fill="#004d68"/>
    <path d="m 64 8.496094 l -45.402344 21.261718 v 21.4375 c 0 26.53125 17.308594 51.042969 45.402344 64.308594 c 28.09375 -13.265625 45.402344 -37.777344 45.402344 -64.308594 v -21.4375 z m 0 0" fill="#1fdee0"/>
    <path d="m 64 8.492188 v 106.996093 h 0.03125 c 28.078125 -13.269531 45.371094 -37.773437 45.375 -64.292969 v -21.4375 z m 0 0" fill-opacity="0.306697"/>
    <path d="m 64 8.492188 l -45.402344 21.265624 v 21.4375 c 0 26.53125 17.308594 51.042969 45.402344 64.308594 z m 0 0" fill="#ffffff" fill-opacity="0.300844"/>
    <path d="m 85.335938 35.070312 c -1.492188 0.121094 -2.851563 0.792969 -3.816407 1.855469 l -24.109375 26.914063 l -6.882812 -6.398438 c -2.191406 -2.035156 -5.742188 -2.035156 -7.933594 0 c -2.195312 2.039063 -2.195312 5.339844 0 7.378906 l 11.222656 10.429688 c 1.117188 1.042969 2.628906 1.589844 4.207032 1.507812 c 1.578124 -0.058593 3.046874 -0.730468 4.054687 -1.851562 l 28.054687 -31.296875 c 1.996094 -2.222656 1.667969 -5.503906 -0.699218 -7.355469 c -1.140625 -0.878906 -2.632813 -1.304687 -4.097656 -1.183594 z m 0 0" fill="#e9fcfc"/>
</svg>
